<?xml version="1.0" standalone="no"?>
<!DOCTYPE svg PUBLIC "-//W3C//DTD SVG 20010904//EN"
 "http://www.w3.org/TR/2001/REC-SVG-20010904/DTD/svg10.dtd">
<svg version="1.0" xmlns="http://www.w3.org/2000/svg"
 width="480.000000pt" height="480.000000pt" viewBox="0 0 480.000000 480.000000"
 preserveAspectRatio="xMidYMid meet">

<g transform="translate(0.000000,480.000000) scale(0.100000,-0.100000)"
fill="#00FF00" stroke="none">
<path d="M1932 4382 c-55 -55 -26 -175 53 -219 45 -25 116 -30 134 -9 6 7 14
33 17 58 13 91 -48 168 -143 184 -33 5 -45 2 -61 -14z"/>
<path d="M2254 4155 c-100 -34 -190 -89 -255 -156 -51 -53 -99 -132 -87 -144
2 -3 83 39 179 93 96 54 222 124 282 157 59 33 107 63 107 67 0 19 -156 7
-226 -17z"/>
<path d="M2450 4016 c-137 -29 -280 -104 -364 -190 -36 -37 -80 -105 -73 -113
1 -1 76 35 167 81 158 79 320 143 460 184 l65 19 -30 12 c-46 19 -153 22 -225
7z"/>
<path d="M2984 3997 c-44 -21 -98 -89 -118 -150 -61 -183 -2 -402 149 -552
109 -110 285 -176 386 -146 53 16 104 68 120 120 13 45 5 119 -16 147 -13 17
-14 14 -15 -34 0 -65 -19 -112 -56 -141 -41 -33 -111 -25 -207 22 -104 51
-192 145 -237 253 -57 138 -53 317 10 384 24 26 35 30 82 30 76 0 132 -22 216
-85 69 -52 71 -53 56 -23 -29 56 -112 135 -167 158 -64 28 -160 36 -203 17z"/>
<path d="M1419 3897 c-24 -13 -56 -41 -71 -63 -37 -53 -62 -169 -54 -243 7
-57 45 -191 55 -191 4 0 6 62 6 138 0 128 2 141 27 194 48 102 116 121 233 63
74 -36 128 -93 175 -187 54 -109 74 -204 68 -337 -7 -141 -38 -235 -88 -269
-29 -20 -44 -23 -87 -19 -29 3 -79 18 -113 33 -33 15 -63 25 -65 22 -3 -3 18
-23 47 -46 214 -163 389 -28 405 313 5 92 2 125 -16 195 -26 106 -88 232 -140
287 -112 117 -278 165 -382 110z"/>
<path d="M2630 3866 c0 -2 20 -49 45 -105 25 -56 45 -110 45 -120 0 -29 -44
-58 -98 -66 -62 -8 -151 20 -238 74 -37 23 -69 40 -72 37 -9 -10 22 -71 57
-109 67 -74 189 -114 295 -97 30 5 65 14 77 20 28 15 29 13 74 -123 73 -220
103 -430 86 -610 -14 -140 -25 -187 -71 -285 -32 -67 -55 -100 -117 -162 -119
-118 -247 -170 -421 -170 -183 0 -306 67 -380 205 -22 42 -26 63 -27 131 0 72
3 85 30 129 19 31 49 61 79 80 44 27 58 30 126 30 67 0 82 -3 117 -28 50 -35
83 -92 83 -146 0 -49 -20 -84 -69 -117 -43 -29 -25 -32 28 -4 77 39 103 135
62 225 -24 54 -100 119 -156 135 -107 30 -239 -12 -319 -101 -126 -140 -97
-377 63 -522 164 -148 451 -169 691 -50 105 53 232 179 283 284 63 128 80 211
80 389 -1 231 -41 405 -147 625 l-53 111 19 34 c10 19 18 48 18 65 0 39 -85
171 -137 214 -34 28 -53 38 -53 27z"/>
<path d="M2423 3822 c13 -67 94 -155 172 -188 55 -23 69 -19 61 16 -15 75
-125 180 -205 196 -34 7 -34 7 -28 -24z"/>
<path d="M2361 3366 c2 -2 36 -16 74 -31 132 -49 206 -114 241 -212 l13 -38 0
45 c1 93 -80 184 -196 220 -57 17 -144 28 -132 16z"/>
<path d="M2070 3224 c-25 -56 -36 -126 -26 -178 10 -51 48 -91 127 -132 37
-20 86 -56 108 -80 45 -48 56 -43 46 19 -13 74 -46 118 -128 166 -49 30 -67
67 -79 160 -5 42 -13 80 -18 85 -4 4 -18 -14 -30 -40z"/>
<path d="M2356 3261 c-16 -6 -10 -10 28 -20 45 -11 79 -36 101 -75 6 -9 30
-22 55 -27 25 -6 53 -17 62 -26 17 -15 17 -14 7 17 -32 89 -173 163 -253 131z"/>
<path d="M3650 3181 c-124 -40 -243 -117 -308 -200 l-39 -49 -34 46 c-32 43
-100 84 -115 69 -3 -3 20 -83 51 -177 l57 -172 22 54 c30 73 76 138 133 187
45 38 177 110 232 126 l24 7 -7 -81 c-9 -117 -46 -224 -106 -309 -27 -39 -60
-78 -72 -86 -21 -15 -21 -16 -3 -16 32 0 120 56 154 97 38 46 93 150 117 223
22 67 24 186 5 253 -16 54 -24 56 -111 28z"/>
<path d="M964 3134 c-10 -37 19 -170 51 -237 27 -57 118 -167 129 -156 3 3 -8
43 -24 88 -17 46 -34 110 -39 143 l-8 60 30 -6 c52 -10 146 -76 244 -170 93
-88 95 -90 88 -56 -12 54 -58 140 -104 192 -80 90 -231 168 -327 168 -28 0
-35 -4 -40 -26z"/>
<path d="M1507 2679 c-214 -98 -224 -99 -382 -40 -59 23 -110 40 -111 38 -7
-7 43 -66 83 -100 108 -90 216 -107 333 -51 122 58 328 234 273 234 -10 0 -98
-37 -196 -81z"/>
<path d="M3060 2503 c0 -5 9 -54 21 -109 48 -229 -20 -426 -188 -540 -191
-130 -437 -133 -672 -8 -46 25 -85 44 -87 42 -9 -10 62 -80 123 -122 101 -69
195 -99 323 -104 185 -7 332 47 446 163 99 101 144 214 144 365 0 95 -16 166
-55 245 -24 51 -55 88 -55 68z"/>
<path d="M3535 2435 c-5 -2 -27 -6 -49 -10 -21 -3 -36 -9 -33 -12 3 -3 40 -11
82 -18 136 -24 207 -87 207 -185 0 -101 -97 -246 -221 -329 -31 -21 -112 -68
-181 -106 -191 -104 -588 -360 -577 -371 9 -9 683 300 771 353 91 55 216 184
254 263 47 96 58 164 38 234 -29 98 -96 154 -211 175 -61 11 -64 12 -80 6z"/>
<path d="M1290 2375 c-60 -19 -123 -74 -151 -133 -50 -100 -23 -263 65 -395
107 -161 333 -324 591 -427 114 -45 111 -36 -9 31 -357 198 -554 407 -582 618
-13 100 21 166 104 203 51 23 109 19 179 -12 63 -28 190 -156 315 -319 243
-317 382 -467 526 -568 91 -63 88 -60 66 -84 -25 -28 -65 -48 -149 -75 l-70
-22 65 -1 c75 -1 137 23 186 70 30 29 33 30 59 17 l27 -14 -27 -32 c-30 -36
-77 -66 -143 -94 l-47 -19 56 5 c67 5 110 25 164 76 l40 37 165 -33 c235 -48
216 -41 195 -64 -58 -64 -180 -110 -295 -110 -75 -1 -64 -14 20 -23 78 -9 175
9 243 45 57 31 137 108 137 133 0 26 -40 42 -234 90 l-201 51 -9 72 c-10 85
-26 95 -26 17 0 -46 -3 -55 -18 -55 -27 0 -42 20 -42 55 0 16 -3 41 -7 55 -6
22 -8 19 -17 -23 l-11 -49 -96 80 c-123 104 -162 147 -398 442 -255 319 -320
387 -411 429 -84 39 -188 50 -260 26z"/>
<path d="M4777 1374 c-9 -26 -16 -49 -14 -51 7 -6 39 75 35 87 -2 6 -11 -10
-21 -36z"/>
<path d="M4662 1216 c-17 -19 -34 -32 -38 -28 -4 4 -4 2 -1 -5 4 -6 1 -14 -5
-16 -9 -4 -10 -6 -1 -6 6 -1 19 9 28 22 8 12 21 22 28 22 6 0 12 5 12 10 0 6
4 16 8 23 15 23 -1 12 -31 -22z"/>
<path d="M4549 1130 c-31 -26 -15 -26 18 0 14 11 21 20 15 20 -5 0 -20 -9 -33
-20z"/>
<path d="M4474 1077 c-94 -66 -133 -100 -128 -108 3 -5 7 -9 10 -9 3 0 2 5 -2
12 -5 8 -2 9 9 5 11 -4 17 -1 17 9 0 8 4 13 9 10 4 -3 18 6 31 19 13 13 27 22
33 18 6 -4 7 -1 2 7 -6 10 -4 12 8 7 12 -4 14 -2 10 10 -4 10 -2 14 4 10 6 -4
18 2 28 13 24 26 8 24 -31 -3z"/>
<path d="M4311 956 c-9 -11 -9 -16 1 -22 7 -4 10 -4 6 1 -4 4 -3 14 3 22 6 7
9 13 6 13 -2 0 -10 -6 -16 -14z"/>
<path d="M4265 910 c3 -5 11 -10 16 -10 6 0 7 5 4 10 -3 6 -11 10 -16 10 -6 0
-7 -4 -4 -10z"/>
<path d="M4228 896 c-10 -7 -18 -17 -18 -21 0 -5 8 -1 18 8 10 10 22 14 27 10
4 -5 5 -2 1 5 -9 14 -7 15 -28 -2z"/>
<path d="M4136 825 c-11 -8 -17 -17 -14 -20 2 -3 13 4 23 15 21 23 18 25 -9 5z"/>
<path d="M4090 790 c0 -5 5 -10 10 -10 6 0 10 5 10 10 0 6 -4 10 -10 10 -5 0
-10 -4 -10 -10z"/>
<path d="M4040 750 c-14 -11 -20 -20 -14 -20 6 0 19 9 29 20 23 25 17 25 -15
0z"/>
<path d="M3953 684 c-20 -18 -22 -22 -7 -15 21 10 52 41 41 41 -3 0 -19 -12
-34 -26z"/>
<path d="M3894 644 c-18 -14 -18 -15 4 -4 12 6 22 13 22 15 0 8 -5 6 -26 -11z"/>
<path d="M3848 611 c-1 -5 -21 -21 -43 -36 -22 -15 -32 -25 -21 -23 11 1 30
13 42 26 13 12 28 22 34 22 5 0 10 5 10 10 0 12 -17 13 -22 1z"/>
<path d="M3685 490 c-3 -6 1 -7 9 -4 18 7 21 14 7 14 -6 0 -13 -4 -16 -10z"/>
<path d="M3565 400 c-3 -5 -2 -10 4 -10 5 0 13 5 16 10 3 6 2 10 -4 10 -5 0
-13 -4 -16 -10z"/>
<path d="M3289 193 c-13 -16 -12 -17 4 -4 16 13 21 21 13 21 -2 0 -10 -8 -17
-17z"/>
<path d="M2895 15 l-50 -13 51 -1 c38 -1 53 3 58 14 6 17 8 17 -59 0z"/>
</g>
</svg>
